<?xml version="1.0" encoding="UTF-8"?>
<svg width="18px" height="18px" viewBox="0 0 18 18" version="1.1" xmlns="http://www.w3.org/2000/svg" xmlns:xlink="http://www.w3.org/1999/xlink">
    <!-- Generator: Sketch 63.1 (92452) - https://sketch.com -->
    <title>attach</title>
    <desc>Created with Sketch.</desc>
    <g id="组件" stroke="none" stroke-width="1" fill="none" fill-rule="evenodd">
        <g id="attach">
            <path d="M15.8184615,4.05730769 C16.2123077,4.45115385 16.5049573,4.89149573 16.6964103,5.37833333 C16.8878632,5.86517094 16.9835897,6.36568376 16.9835897,6.87987179 C16.9835897,7.39405983 16.8878632,7.89457265 16.6964103,8.38141026 C16.5049573,8.86824786 16.2123077,9.30858974 15.8184615,9.7024359 L9.53333333,15.9383333 C9.13948718,16.3321795 8.65538462,16.6603846 8.08102564,16.9229487 C7.50666667,17.1855128 6.89948718,17.3386752 6.25948718,17.3824359 C5.61948718,17.4261966 4.96581197,17.3386752 4.29846154,17.1198718 C3.63111111,16.9010684 3.01299145,16.5072222 2.44410256,15.9383333 C1.88615385,15.3803846 1.49777778,14.7759402 1.27897436,14.125 C1.06017094,13.4740598 0.972649573,12.8258547 1.01641026,12.1803846 C1.06017094,11.5349145 1.21059829,10.927735 1.46769231,10.3588462 C1.72478632,9.78995726 2.05025641,9.30858974 2.44410256,8.91474359 L8.02358974,3.38448718 C8.12205128,3.28602564 8.26700855,3.26141026 8.45846154,3.31064103 C8.64991453,3.35987179 8.79487179,3.43371795 8.89333333,3.53217949 C8.9808547,3.63064103 9.05196581,3.77559829 9.10666667,3.96705128 C9.16136752,4.15850427 9.13948718,4.30346154 9.04102564,4.40192308 L3.47794872,9.91576923 C3.1825641,10.2111538 2.93641026,10.5557692 2.73948718,10.9496154 C2.5425641,11.3434615 2.42769231,11.7646581 2.39487179,12.2132051 C2.36205128,12.6617521 2.42769231,13.1157692 2.59179487,13.5752564 C2.75589744,14.0347436 3.05128205,14.4778205 3.47794872,14.9044872 C3.8608547,15.2873932 4.28478632,15.5581624 4.74974359,15.7167949 C5.21470085,15.8754274 5.67692308,15.9410684 6.13641026,15.9137179 C6.59589744,15.8863675 7.03350427,15.7851709 7.44923077,15.6101282 C7.86495726,15.4350855 8.22051282,15.1998718 8.51589744,14.9044872 L14.7846154,8.685 C15.08,8.38961538 15.2905983,8.0832906 15.4164103,7.76602564 C15.5422222,7.44876068 15.6023932,7.13423077 15.5969231,6.8224359 C15.591453,6.51064103 15.5176068,6.20705128 15.3753846,5.91166667 C15.2331624,5.61628205 15.0362393,5.34277778 14.7846154,5.09115385 C14.314188,4.63166667 13.7863248,4.41559829 13.2010256,4.44294872 C12.6157265,4.47029915 12.0276923,4.77935897 11.4369231,5.37012821 L5.77538462,10.9988462 C5.52376068,11.2504701 5.40068376,11.5294444 5.40615385,11.8357692 C5.41162393,12.142094 5.51282051,12.3937179 5.70974359,12.590641 C5.95042735,12.8313248 6.22666667,12.9297863 6.53846154,12.8860256 C6.85025641,12.842265 7.10461538,12.7219231 7.30153846,12.525 L12.4379487,7.42141026 C12.5364103,7.32294872 12.6813675,7.29833333 12.8728205,7.3475641 C13.0642735,7.39679487 13.2092308,7.47064103 13.3076923,7.56910256 C13.4061538,7.6675641 13.482735,7.81252137 13.5374359,8.00397436 C13.5921368,8.19542735 13.5702564,8.34038462 13.4717949,8.43884615 L8.31897436,13.5424359 C7.92512821,13.9362821 7.54769231,14.2097863 7.18666667,14.3629487 C6.82564103,14.5161111 6.48649573,14.5844872 6.16923077,14.5680769 C5.85196581,14.5516667 5.5565812,14.4668803 5.28307692,14.3137179 C5.00957265,14.1605556 4.75794872,13.9745726 4.52820513,13.7557692 C4.34222222,13.5807265 4.17538462,13.356453 4.02769231,13.0829487 C3.88,12.8094444 3.79521368,12.5085897 3.77333333,12.1803846 C3.75145299,11.8521795 3.80888889,11.502094 3.94564103,11.1301282 C4.08239316,10.7581624 4.34769231,10.3807265 4.74153846,9.99782051 C4.93846154,9.80089744 5.11350427,9.62038462 5.26666667,9.45628205 C5.39794872,9.31405983 5.52102564,9.18824786 5.63589744,9.07884615 C5.75076923,8.96944444 5.81367521,8.9092735 5.82461538,8.89833333 L10.4030769,4.33628205 C10.7969231,3.9424359 11.2263248,3.63337607 11.6912821,3.40910256 C12.1562393,3.18482906 12.6294017,3.05628205 13.1107692,3.02346154 C13.5921368,2.99064103 14.0652991,3.05628205 14.5302564,3.22038462 C14.9952137,3.38448718 15.4246154,3.66346154 15.8184615,4.05730769 Z" id="路径" fill="#3B95EE" fill-rule="nonzero"></path>
            <g id="附件" transform="translate(1.000000, 3.000000)"></g>
        </g>
    </g>
</svg>