<svg width="16" height="16" viewBox="0 0 16 16" fill="currentColor" xmlns="http://www.w3.org/2000/svg">
<path fill-rule="evenodd" clip-rule="evenodd" d="M7.262 2.57539L3.858 5.98039C3.56358 6.26449 3.0958 6.2602 2.80664 5.97076C2.51747 5.68133 2.51363 5.21354 2.798 4.91939L7.482 0.235392C7.62254 0.0943902 7.81342 0.0151367 8.0125 0.0151367C8.21158 0.0151367 8.40246 0.0943902 8.543 0.235392L13.227 4.92039C13.4165 5.10992 13.4905 5.38617 13.4212 5.64507C13.3518 5.90397 13.1496 6.1062 12.8907 6.17557C12.6318 6.24494 12.3555 6.17092 12.166 5.98139L8.762 2.57639V11.8484C8.762 12.2626 8.42621 12.5984 8.012 12.5984C7.59779 12.5984 7.262 12.2626 7.262 11.8484V2.57539ZM16 15.2654V10.0974C16 9.68318 15.6642 9.34739 15.25 9.34739C14.8358 9.34739 14.5 9.68318 14.5 10.0974V14.5154H1.5V10.0974C1.5 9.68318 1.16421 9.34739 0.75 9.34739C0.335786 9.34739 0 9.68318 0 10.0974V15.2654C0 15.6796 0.335786 16.0154 0.75 16.0154H15.25C15.6642 16.0154 16 15.6796 16 15.2654Z" fill="#666666"/>
</svg>
