<?xml version="1.0" encoding="UTF-8"?>
<svg width="14px" height="14px" viewBox="0 0 14 14" version="1.1" xmlns="http://www.w3.org/2000/svg" xmlns:xlink="http://www.w3.org/1999/xlink">
    <!-- Generator: Sketch 63.1 (92452) - https://sketch.com -->
    <title>close_small</title>
    <desc>Created with Sketch.</desc>
    <g id="页面-1" stroke="none" stroke-width="1" fill="none" fill-rule="evenodd">
        <g id="联系我们填写状态" transform="translate(-918.000000, -2563.000000)" fill="#666666">
            <g id="编组-2备份-4" transform="translate(260.000000, 1907.000000)">
                <g id="编组备份-4" transform="translate(0.000000, 372.000000)">
                    <g id="编组-4" transform="translate(0.000000, 276.000000)">
                        <g id="编组-3">
                            <g id="-mockplus-" transform="translate(516.000000, 0.000000)">
                                <g id="编组-4备份-3">
                                    <g id="编组-4">
                                        <g id="-mockplus-" transform="translate(142.000000, 8.000000)">
                                            <g id="close_Small">
                                                <g id="close_small">
                                                    <path d="M7.17157288,2.17157288 C7.44771525,2.17157288 7.67157288,2.3954305 7.67157288,2.67157288 L7.67157288,6.67157288 L11.6715729,6.67157288 C11.9477153,6.67157288 12.1715729,6.8954305 12.1715729,7.17157288 C12.1715729,7.44771525 11.9477153,7.67157288 11.6715729,7.67157288 L7.67057288,7.67157288 L7.67157288,11.6715729 C7.67157288,11.9477153 7.44771525,12.1715729 7.17157288,12.1715729 C6.8954305,12.1715729 6.67157288,11.9477153 6.67157288,11.6715729 L6.67057288,7.67157288 L2.67157288,7.67157288 C2.3954305,7.67157288 2.17157288,7.44771525 2.17157288,7.17157288 C2.17157288,6.8954305 2.3954305,6.67157288 2.67157288,6.67157288 L6.67157288,6.67157288 L6.67157288,2.67157288 C6.67157288,2.3954305 6.8954305,2.17157288 7.17157288,2.17157288 Z" id="形状结合" transform="translate(7.171573, 7.171573) rotate(-315.000000) translate(-7.171573, -7.171573) "></path>
                                                </g>
                                            </g>
                                        </g>
                                    </g>
                                </g>
                            </g>
                        </g>
                    </g>
                </g>
            </g>
        </g>
    </g>
</svg>