<svg width="32" height="32" viewBox="0 0 32 32" fill="none" xmlns="http://www.w3.org/2000/svg">
<circle cx="16" cy="16" r="16" fill="#2B8CED"/>
<mask id="mask0_326_1599" style="mask-type:alpha" maskUnits="userSpaceOnUse" x="0" y="0" width="32" height="32">
<circle cx="16" cy="16" r="16" fill="#2B8CED"/>
</mask>
<g mask="url(#mask0_326_1599)">
<path fill-rule="evenodd" clip-rule="evenodd" d="M11.3404 10.7782L11.3403 10.7782L11.3403 10.7782C11.0824 10.8747 10.84 10.9653 10.6854 11.0126C10.8157 10.9479 10.9528 10.8739 11.0931 10.798C11.259 10.7083 11.4296 10.6161 11.5991 10.534C12.5663 10.0649 13.5194 9.64624 14.5534 9.29475C15.9915 8.80584 17.5752 8.4327 19.2364 8.39749C20.9314 8.36134 22.5536 8.72244 23.8398 9.39711C24.5432 9.76593 25.313 10.3108 25.8619 10.8785C26.1269 11.1518 26.6663 11.7656 26.7762 12.0548L22.1353 12.0519C22.0877 11.9217 21.8361 11.5948 21.7474 11.4899C21.3009 10.9608 20.7784 10.5404 20.1337 10.2451C17.7096 9.13364 14.5396 9.7092 12.079 10.5121C11.864 10.5824 11.5947 10.6831 11.3404 10.7782ZM6.99371 22.1925C6.48314 21.49 5.9578 20.2424 5.93316 19.1131C5.93777 19.1184 5.94305 19.1254 5.94589 19.1294C5.94698 19.1311 5.94885 19.1335 5.95086 19.1361C5.95336 19.1393 5.95608 19.1428 5.9578 19.1456L5.9611 19.1504L5.9611 19.1504C5.96374 19.1543 5.96661 19.1585 5.96877 19.1621L6.18676 19.6398C6.35884 19.968 6.54813 20.2722 6.77423 20.5534L7.11868 20.9476C8.7992 22.7949 11.4395 23.1351 13.987 22.8577C15.7636 22.6642 17.0729 22.2487 18.611 21.5016C19.6432 21 20.7558 20.0534 21.4417 19.1142C21.4579 19.0921 21.4829 19.0548 21.5121 19.011L21.5121 19.011L21.5121 19.011C21.5936 18.8892 21.7084 18.7176 21.7621 18.6846L26.3381 18.6899C26.2229 19.0141 25.7139 19.7094 25.5192 19.9507C25.3952 20.1047 24.9285 20.6681 24.79 20.794C24.7062 20.87 24.6569 20.9192 24.5974 20.9788L24.5973 20.9789C24.5783 20.9979 24.5582 21.0179 24.5357 21.0402C24.0754 21.4952 23.9412 21.6068 23.4363 22.0138C21.4965 23.5795 18.8717 24.5937 16.1568 25.0276C14.8045 25.2438 13.733 25.2833 12.3637 25.0668C11.205 24.8834 10.1442 24.5619 9.22461 24.0847C8.26087 23.5844 7.55357 22.9627 6.99371 22.1925ZM14.1519 14.5987C14.3758 14.5425 14.6518 14.6188 14.6799 14.7936C14.686 14.8305 14.3247 15.7415 14.2299 15.8366C13.9205 16.1464 13.3447 16.3057 13.2259 15.9259C13.1016 15.5264 13.5577 14.7475 14.1519 14.5987ZM14.9214 17.9237L14.798 17.4175C14.6734 17.4521 14.5753 17.4863 14.4828 17.5186C14.2747 17.5912 14.0957 17.6537 13.7089 17.6877C12.5625 17.7884 11.2763 17.3051 11.3922 15.9235C11.6014 13.4312 14.8525 12.3236 16.232 13.3311C17.0943 13.9611 16.8491 15.4829 15.9557 16.0443C15.7429 16.1782 15.0333 16.3997 15.0389 15.9404C15.0426 15.6511 15.8211 14.0303 15.8211 14.0303L15.1177 14.031L15.0026 14.2448C14.9471 14.1221 14.8376 13.9504 14.312 13.9759C12.8303 14.0483 11.7037 16.1813 12.8066 16.6504C13.0787 16.7659 13.4093 16.7466 13.6863 16.6519C13.9435 16.564 14.0522 16.4846 14.1992 16.3773C14.2406 16.3471 14.285 16.3146 14.3366 16.2792C14.3454 16.2899 14.3536 16.3112 14.3644 16.3393C14.4262 16.4999 14.5733 16.8825 15.4057 16.7812C16.6188 16.6339 17.5861 15.4599 17.4702 14.1409C17.2544 11.6842 12.9886 11.9555 11.3961 14.1253C9.80346 16.295 10.7209 18.4925 13.6382 18.2565C13.9893 18.2282 14.6737 18.0855 14.9214 17.9237ZM18.9565 16.9037L19.5147 16.9065C20.2199 16.9105 21.0031 16.9142 21.6058 16.9142L21.3257 18.3016C20.7908 18.3037 18.0324 18.3065 17.2665 18.3069C17.371 17.7858 17.9872 14.747 18.2963 13.2233L18.4564 12.4334L18.5539 12.4335H18.5541C18.8728 12.4342 19.6 12.4356 19.8695 12.4338C19.8256 12.6694 19.6621 13.4579 19.5031 14.2234C19.3007 15.1977 19.0715 16.3021 18.971 16.8266L18.9565 16.9037ZM9.45899 12.4076L8.66368 16.2508C8.56065 16.7487 8.24829 17.0341 7.80704 17.0341C7.63008 17.0341 7.50118 16.9864 7.42415 16.8927C7.33194 16.7808 7.30825 16.5932 7.35564 16.3509L7.42618 16.0117H6.03121L5.9627 16.3428C5.84043 16.9298 5.92235 17.4047 6.20573 17.7533C6.49859 18.113 6.98641 18.303 7.61708 18.303C8.88004 18.303 9.78258 17.5866 10.0306 16.3862L10.8526 12.4076H9.45899ZM26.2281 16.317L26.2494 16.2824L27.5844 16.286C27.5077 16.5075 27.4098 16.7229 27.2785 16.9169C26.7029 17.7654 25.8035 18.2484 24.7045 18.2883C24.6571 18.2897 24.6102 18.2907 24.5643 18.2907C22.6668 18.2907 22.215 16.848 22.433 15.4702C22.5601 14.6656 22.8901 13.9625 23.3865 13.4368C23.959 12.8303 24.737 12.4922 25.6354 12.4597C26.8538 12.4183 27.7073 12.9789 27.8913 13.9703C27.9093 14.0667 27.9077 14.3574 27.9077 14.3574L26.5514 14.3493L26.5218 14.2726C26.3341 13.7943 26.0042 13.5886 25.4516 13.6099C25.0299 13.6248 24.6554 13.7919 24.3685 14.0926C24.0683 14.4079 23.863 14.8676 23.775 15.4215C23.6896 15.9588 23.7513 16.4032 23.9534 16.7074C24.1478 17.0003 24.4653 17.1496 24.8755 17.137C25.4336 17.1204 25.9378 16.7936 26.2281 16.317Z" fill="white"/>
</g>
</svg>
