<svg width="161" height="141" viewBox="0 0 161 141" fill="none" xmlns="http://www.w3.org/2000/svg">
<ellipse opacity="0.23" cx="86.7333" cy="70.5" rx="70.6494" ry="70.5" fill="url(#paint0_linear_329_24698)"/>
<mask id="mask0_329_24698" style="mask-type:alpha" maskUnits="userSpaceOnUse" x="19" y="0" width="142" height="141">
<circle cx="89.7012" cy="70.5" r="70.5" fill="url(#paint1_linear_329_24698)"/>
</mask>
<g mask="url(#mask0_329_24698)">
<rect x="49.3311" y="41.4702" width="76.8831" height="136.853" rx="4" fill="url(#paint2_linear_329_24698)"/>
<path fill-rule="evenodd" clip-rule="evenodd" d="M82.6816 37.3233C83.1629 34.9572 85.2593 33.1763 87.7725 33.1763C90.2857 33.1763 92.3821 34.9572 92.8634 37.3233H101.435C103.644 37.3233 105.435 39.1142 105.435 41.3233V45.6174H68.0322V41.3233C68.0322 39.1142 69.8231 37.3233 72.0322 37.3233H82.6816Z" fill="url(#paint3_linear_329_24698)"/>
<ellipse cx="87.7722" cy="38.3603" rx="3.11688" ry="3.11029" fill="#73B4F4"/>
<rect x="53.4873" y="47.6909" width="68.5714" height="103.676" rx="4" fill="url(#paint4_linear_329_24698)"/>
<rect opacity="0.5" x="61.7988" y="62.2056" width="45.7143" height="4.14706" rx="2" fill="#B4D7FA"/>
<rect opacity="0.7" x="61.7988" y="72.5732" width="45.7143" height="4.14706" rx="2" fill="#B4D7FA"/>
<rect opacity="0.8" x="61.7988" y="82.9409" width="29.0909" height="4.14706" rx="2" fill="#B4D7FA"/>
<rect x="61.7988" y="114.044" width="45.7143" height="4.14706" rx="2" fill="#B4D7FA"/>
<rect opacity="0.9" x="61.7988" y="103.676" width="29.0909" height="4.14706" rx="2" fill="#B4D7FA"/>
</g>
<path opacity="0.5" fill-rule="evenodd" clip-rule="evenodd" d="M129.331 31.2603L127.127 32.2657L128.134 30.0663L127.127 27.867L129.331 28.8724L131.535 27.867L130.527 30.0663L131.535 32.2657L129.331 31.2603Z" fill="url(#paint5_linear_329_24698)"/>
<path opacity="0.8" fill-rule="evenodd" clip-rule="evenodd" d="M118.224 21.1539L116.682 24.8792L115.405 21.0557L111.672 19.5176L115.503 18.2431L117.045 14.5178L118.322 18.3413L122.055 19.8794L118.224 21.1539Z" fill="url(#paint6_linear_329_24698)"/>
<ellipse opacity="0.5" cx="49.3314" cy="10.3676" rx="6.23377" ry="6.22059" fill="url(#paint7_linear_329_24698)"/>
<ellipse cx="34.7857" cy="93.3087" rx="4.15584" ry="4.14706" fill="#D4E8FE"/>
<ellipse opacity="0.9" cx="8.81169" cy="117.154" rx="8.31169" ry="8.29412" fill="url(#paint8_linear_329_24698)"/>
<ellipse cx="146.994" cy="120.265" rx="6.23377" ry="6.22059" fill="url(#paint9_linear_329_24698)"/>
<defs>
<linearGradient id="paint0_linear_329_24698" x1="17.6564" y1="9.02187" x2="35.6633" y2="146.893" gradientUnits="userSpaceOnUse">
<stop stop-color="#E6F2FF" stop-opacity="0.396662"/>
<stop offset="1" stop-color="#4CA5FD"/>
</linearGradient>
<linearGradient id="paint1_linear_329_24698" x1="20.7703" y1="9.02187" x2="38.814" y2="146.884" gradientUnits="userSpaceOnUse">
<stop stop-color="#E6F2FF" stop-opacity="0.396662"/>
<stop offset="1" stop-color="#4CA5FD"/>
</linearGradient>
<linearGradient id="paint2_linear_329_24698" x1="37.8321" y1="-31.5495" x2="37.8321" y2="146.24" gradientUnits="userSpaceOnUse">
<stop stop-color="#C9E3FD"/>
<stop offset="1" stop-color="#3B95EE"/>
</linearGradient>
<linearGradient id="paint3_linear_329_24698" x1="58.264" y1="32.0336" x2="58.264" y2="50.9732" gradientUnits="userSpaceOnUse">
<stop stop-color="#C9E3FD"/>
<stop offset="1" stop-color="#3B95EE"/>
</linearGradient>
<linearGradient id="paint4_linear_329_24698" x1="40.7125" y1="45.2614" x2="33.377" y2="187.355" gradientUnits="userSpaceOnUse">
<stop stop-color="white"/>
<stop offset="1" stop-color="#E4F1FF"/>
</linearGradient>
<linearGradient id="paint5_linear_329_24698" x1="125.675" y1="26.3847" x2="125.675" y2="33.6801" gradientUnits="userSpaceOnUse">
<stop stop-color="#C9E3FD"/>
<stop offset="1" stop-color="#3B95EE"/>
</linearGradient>
<linearGradient id="paint6_linear_329_24698" x1="110.748" y1="19.457" x2="116.623" y2="25.7578" gradientUnits="userSpaceOnUse">
<stop stop-color="#C9E3FD"/>
<stop offset="1" stop-color="#3B95EE"/>
</linearGradient>
<linearGradient id="paint7_linear_329_24698" x1="33.4617" y1="-3.1086" x2="21.255" y2="28.5811" gradientUnits="userSpaceOnUse">
<stop stop-color="#C9E3FD"/>
<stop offset="1" stop-color="#3B95EE"/>
</linearGradient>
<linearGradient id="paint8_linear_329_24698" x1="-3.54856" y1="102.123" x2="-3.54856" y2="126.791" gradientUnits="userSpaceOnUse">
<stop stop-color="#C9E3FD"/>
<stop offset="1" stop-color="#3B95EE"/>
</linearGradient>
<linearGradient id="paint9_linear_329_24698" x1="134.6" y1="114.044" x2="134.6" y2="138.779" gradientUnits="userSpaceOnUse">
<stop stop-color="#C9E3FD"/>
<stop offset="1" stop-color="#3B95EE"/>
</linearGradient>
</defs>
</svg>
