<svg width="24" height="25" viewBox="0 0 24 25" fill="none" xmlns="http://www.w3.org/2000/svg">
<path fill-rule="evenodd" clip-rule="evenodd" d="M24 12.7993C24 6.1719 18.6274 0.799316 12 0.799316C5.37258 0.799316 0 6.1719 0 12.7993C0 19.4267 5.37258 24.7993 12 24.7993C18.6274 24.7993 24 19.4267 24 12.7993ZM8.42553 9.15237C8.42553 9.00509 8.54492 8.8857 8.6922 8.8857C8.73483 8.8857 8.77684 8.89592 8.81471 8.91551L15.4001 12.3217C15.5309 12.3894 15.5821 12.5503 15.5144 12.6811C15.4913 12.7259 15.4559 12.7632 15.4124 12.7887L8.82706 16.649C8.7 16.7235 8.53663 16.6809 8.46215 16.5539C8.43817 16.513 8.42553 16.4664 8.42553 16.419V9.15237Z" fill="white"/>
</svg>
