<svg width="64" height="64" viewBox="0 0 64 64" fill="none" xmlns="http://www.w3.org/2000/svg">
<circle cx="32" cy="32" r="32" fill="#F1F3F6" fill-opacity="0.960784"/>
<path fill-rule="evenodd" clip-rule="evenodd" d="M24 25C24 24.4477 24.4477 24 25 24H39C39.5523 24 40 24.4477 40 25V39C40 39.5523 39.5523 40 39 40H25C24.4477 40 24 39.5523 24 39V37.5C24 36.9477 23.5523 36.5 23 36.5C22.4477 36.5 22 36.9477 22 37.5V39C22 40.6569 23.3431 42 25 42H39C40.6569 42 42 40.6569 42 39V25C42 23.3431 40.6569 22 39 22H25C23.3431 22 22 23.3431 22 25V26.5C22 27.0523 22.4477 27.5 23 27.5C23.5523 27.5 24 27.0523 24 26.5V25ZM31.3861 26.7106C31.822 26.3716 32.4503 26.4501 32.7894 26.8861L36.2839 31.379L36.2957 31.3942L36.7669 32L36.2957 32.6058L36.2839 32.621L32.7894 37.1139C32.4503 37.5499 31.822 37.6284 31.3861 37.2894C30.9501 36.9503 30.8716 36.322 31.2106 35.8861L33.4554 33H22.5C21.9477 33 21.5 32.5523 21.5 32C21.5 31.4477 21.9477 31 22.5 31H33.4554L31.2106 28.1139C30.8716 27.678 30.9501 27.0497 31.3861 26.7106Z" fill="#222222"/>
</svg>
